<mxfile host="app.diagrams.net" modified="2022-08-31T04:12:40.948Z" agent="5.0 (Macintosh; Intel Mac OS X 10_15_6) AppleWebKit/605.1.15 (KHTML, like Gecko) Version/15.6.1 Safari/605.1.15" etag="cSe1suTvHJmGhkRO6vgi" version="20.2.7" type="github">
  <diagram id="5aZIHa-U84SfKqgR_u-n" name="Page-1">
    <mxGraphModel dx="682" dy="538" grid="1" gridSize="10" guides="1" tooltips="1" connect="1" arrows="1" fold="1" page="1" pageScale="1" pageWidth="827" pageHeight="1169" math="0" shadow="0">
      <root>
        <mxCell id="0" />
        <mxCell id="1" parent="0" />
        <mxCell id="pwWEr3jT9nPNCPOC9p5H-13" value="" style="edgeStyle=orthogonalEdgeStyle;rounded=0;orthogonalLoop=1;jettySize=auto;html=1;fontSize=13;" edge="1" parent="1" source="pwWEr3jT9nPNCPOC9p5H-11" target="pwWEr3jT9nPNCPOC9p5H-12">
          <mxGeometry relative="1" as="geometry" />
        </mxCell>
        <mxCell id="pwWEr3jT9nPNCPOC9p5H-11" value="Start" style="rounded=1;whiteSpace=wrap;html=1;fontSize=13;" vertex="1" parent="1">
          <mxGeometry x="294" y="40" width="186" height="80" as="geometry" />
        </mxCell>
        <mxCell id="pwWEr3jT9nPNCPOC9p5H-17" value="" style="edgeStyle=orthogonalEdgeStyle;rounded=0;orthogonalLoop=1;jettySize=auto;html=1;fontSize=13;" edge="1" parent="1" source="pwWEr3jT9nPNCPOC9p5H-12" target="pwWEr3jT9nPNCPOC9p5H-16">
          <mxGeometry relative="1" as="geometry" />
        </mxCell>
        <mxCell id="pwWEr3jT9nPNCPOC9p5H-12" value="Wake up" style="rounded=1;whiteSpace=wrap;html=1;fontSize=13;" vertex="1" parent="1">
          <mxGeometry x="294" y="190" width="186" height="70" as="geometry" />
        </mxCell>
        <mxCell id="pwWEr3jT9nPNCPOC9p5H-21" value="" style="edgeStyle=orthogonalEdgeStyle;rounded=0;orthogonalLoop=1;jettySize=auto;html=1;fontSize=13;" edge="1" parent="1" source="pwWEr3jT9nPNCPOC9p5H-16" target="pwWEr3jT9nPNCPOC9p5H-20">
          <mxGeometry relative="1" as="geometry" />
        </mxCell>
        <mxCell id="pwWEr3jT9nPNCPOC9p5H-16" value="Take shower" style="rounded=1;whiteSpace=wrap;html=1;fontSize=13;" vertex="1" parent="1">
          <mxGeometry x="540" y="190" width="186" height="70" as="geometry" />
        </mxCell>
        <mxCell id="pwWEr3jT9nPNCPOC9p5H-23" value="" style="edgeStyle=orthogonalEdgeStyle;rounded=0;orthogonalLoop=1;jettySize=auto;html=1;fontSize=13;" edge="1" parent="1" source="pwWEr3jT9nPNCPOC9p5H-20" target="pwWEr3jT9nPNCPOC9p5H-22">
          <mxGeometry relative="1" as="geometry" />
        </mxCell>
        <mxCell id="pwWEr3jT9nPNCPOC9p5H-20" value="Eat breakfast" style="rounded=1;whiteSpace=wrap;html=1;fontSize=13;" vertex="1" parent="1">
          <mxGeometry x="540" y="340" width="186" height="70" as="geometry" />
        </mxCell>
        <mxCell id="pwWEr3jT9nPNCPOC9p5H-25" value="" style="edgeStyle=orthogonalEdgeStyle;rounded=0;orthogonalLoop=1;jettySize=auto;html=1;fontSize=13;" edge="1" parent="1" source="pwWEr3jT9nPNCPOC9p5H-22" target="pwWEr3jT9nPNCPOC9p5H-24">
          <mxGeometry relative="1" as="geometry" />
        </mxCell>
        <mxCell id="pwWEr3jT9nPNCPOC9p5H-22" value="Get in car" style="rounded=1;whiteSpace=wrap;html=1;fontSize=13;" vertex="1" parent="1">
          <mxGeometry x="274" y="340" width="186" height="70" as="geometry" />
        </mxCell>
        <mxCell id="pwWEr3jT9nPNCPOC9p5H-28" value="" style="edgeStyle=orthogonalEdgeStyle;rounded=0;orthogonalLoop=1;jettySize=auto;html=1;fontSize=13;" edge="1" parent="1" source="pwWEr3jT9nPNCPOC9p5H-24" target="pwWEr3jT9nPNCPOC9p5H-27">
          <mxGeometry relative="1" as="geometry" />
        </mxCell>
        <mxCell id="pwWEr3jT9nPNCPOC9p5H-24" value="Go to school&amp;nbsp;" style="rounded=1;whiteSpace=wrap;html=1;fontSize=13;" vertex="1" parent="1">
          <mxGeometry x="274" y="490" width="186" height="70" as="geometry" />
        </mxCell>
        <mxCell id="pwWEr3jT9nPNCPOC9p5H-30" value="" style="edgeStyle=orthogonalEdgeStyle;rounded=0;orthogonalLoop=1;jettySize=auto;html=1;fontSize=13;" edge="1" parent="1" source="pwWEr3jT9nPNCPOC9p5H-27" target="pwWEr3jT9nPNCPOC9p5H-29">
          <mxGeometry relative="1" as="geometry" />
        </mxCell>
        <mxCell id="pwWEr3jT9nPNCPOC9p5H-27" value="Go to 11th floor" style="rounded=1;whiteSpace=wrap;html=1;fontSize=13;" vertex="1" parent="1">
          <mxGeometry x="540" y="490" width="186" height="70" as="geometry" />
        </mxCell>
        <mxCell id="pwWEr3jT9nPNCPOC9p5H-32" value="" style="edgeStyle=orthogonalEdgeStyle;rounded=0;orthogonalLoop=1;jettySize=auto;html=1;fontSize=13;" edge="1" parent="1" source="pwWEr3jT9nPNCPOC9p5H-29" target="pwWEr3jT9nPNCPOC9p5H-31">
          <mxGeometry relative="1" as="geometry" />
        </mxCell>
        <mxCell id="pwWEr3jT9nPNCPOC9p5H-29" value="Check in school" style="rounded=1;whiteSpace=wrap;html=1;fontSize=13;" vertex="1" parent="1">
          <mxGeometry x="540" y="640" width="186" height="70" as="geometry" />
        </mxCell>
        <mxCell id="pwWEr3jT9nPNCPOC9p5H-34" value="" style="edgeStyle=orthogonalEdgeStyle;rounded=0;orthogonalLoop=1;jettySize=auto;html=1;fontSize=13;" edge="1" parent="1" source="pwWEr3jT9nPNCPOC9p5H-31" target="pwWEr3jT9nPNCPOC9p5H-33">
          <mxGeometry relative="1" as="geometry" />
        </mxCell>
        <mxCell id="pwWEr3jT9nPNCPOC9p5H-31" value="Start learning" style="rounded=1;whiteSpace=wrap;html=1;fontSize=13;" vertex="1" parent="1">
          <mxGeometry x="274" y="640" width="186" height="70" as="geometry" />
        </mxCell>
        <mxCell id="pwWEr3jT9nPNCPOC9p5H-33" value="End" style="rounded=1;whiteSpace=wrap;html=1;fontSize=13;" vertex="1" parent="1">
          <mxGeometry x="274" y="790" width="186" height="70" as="geometry" />
        </mxCell>
      </root>
    </mxGraphModel>
  </diagram>
</mxfile>
